# xmcd
#
# Track frame offsets:
# 150
# 6749
# 26831
# 54834
# 79338
# 105756
# 135611
# 157531
# 181726
# 206941
# 229010
# 255761
# 286135
# 312540
#
# Disc length: 4779 seconds
#
# Revision: 0
# Processed by: cddbd v1.5.1PL0 Copyright (c) Steve Scherf et al.
# Submitted via: Audion 3.0.2 (http://www.panic.com/audion/)
#
DISCID=ac12a90e
DTITLE=Various Artist - Industrial 
DYEAR=1900
DGENRE=
TTITLE0=Various
TTITLE1=Various
TTITLE2=Various
TTITLE3=Various
TTITLE4=Various
TTITLE5=Various
TTITLE6=Various
TTITLE7=Various
TTITLE8=Various
TTITLE9=Various
TTITLE10=Various
TTITLE11=Various
TTITLE12=Various
TTITLE13=Various
EXTD=
EXTT0=
EXTT1=
EXTT2=
EXTT3=
EXTT4=
EXTT5=
EXTT6=
EXTT7=
EXTT8=
EXTT9=
EXTT10=
EXTT11=
EXTT12=
EXTT13=
PLAYORDER=
